<svg xmlns="http://www.w3.org/2000/svg" xmlns:xlink="http://www.w3.org/1999/xlink" width="500" zoomAndPan="magnify" viewBox="0 0 375 374.999991" height="500" preserveAspectRatio="xMidYMid meet" version="1.0"><defs><g/><clipPath id="440cf9a92f"><path d="M 163 71.773438 L 239 71.773438 L 239 202 L 163 202 Z M 163 71.773438 " clip-rule="nonzero"/></clipPath><clipPath id="713bb12d54"><path d="M 186 71.773438 L 239 71.773438 L 239 159 L 186 159 Z M 186 71.773438 " clip-rule="nonzero"/></clipPath></defs><path fill="#e2e8f0" d="M 139.238281 135.082031 C 133.476562 145.261719 131.675781 156.253906 134.648438 168.222656 C 141.640625 196.375 172.921875 221.773438 201.140625 207.773438 C 216.707031 200.046875 222.867188 181.121094 212.167969 166.46875 C 206.300781 158.433594 196.917969 151.675781 186.65625 145.238281 C 173.449219 137.199219 154.222656 124.367188 156.207031 106.671875 C 148.574219 114.964844 143.386719 124.511719 149.425781 135.148438 C 154.0625 143.304688 162.769531 150.78125 173.777344 157.878906 C 178.492188 161.359375 183.070312 164.976562 186.398438 169.796875 C 195.773438 183.367188 185.015625 192.550781 171.253906 190.988281 C 157.617188 189.441406 150.964844 182.78125 147.992188 173.441406 C 153.296875 177.730469 158.78125 181.703125 165.253906 183.398438 C 175.917969 186.191406 178.75 179.582031 175.683594 172.296875 C 174.066406 168.453125 171.078125 164.816406 167.457031 161.914062 C 156.21875 152.882812 149.285156 146.953125 139.238281 135.082031 " fill-opacity="1" fill-rule="evenodd"/><path fill="#94a3b8" d="M 207.277344 203.765625 C 218.136719 194.664062 221.324219 179.003906 212.171875 166.46875 C 206.304688 158.433594 196.921875 151.675781 186.660156 145.238281 C 173.453125 137.199219 154.226562 124.367188 156.210938 106.671875 C 151.695312 119.671875 153.875 128.492188 163.515625 137.761719 C 175.421875 149.207031 191.316406 157.554688 202.042969 169.898438 C 209.75 178.769531 213.804688 189.429688 207.277344 203.765625 " fill-opacity="1" fill-rule="evenodd"/><path fill="#94a3b8" d="M 176.828125 178.0625 C 176.9375 176.316406 176.542969 174.332031 175.679688 172.289062 C 174.0625 168.445312 171.070312 164.808594 167.453125 161.90625 C 156.210938 152.878906 149.28125 146.945312 139.234375 135.082031 C 149.253906 159.996094 168.976562 160.324219 176.828125 178.0625 " fill-opacity="1" fill-rule="evenodd"/><g clip-path="url(#440cf9a92f)"><path fill="#94a3b8" d="M 186.835938 71.773438 C 174.007812 81.625 158.089844 95.164062 165.59375 111.121094 C 171.804688 124.324219 191.621094 136.609375 202.898438 145.742188 C 223.171875 162.152344 238.628906 175.289062 218.207031 201.011719 C 235.003906 185.089844 241.859375 166.71875 225.691406 147.585938 C 221.222656 142.292969 215.902344 137.355469 209.800781 132.734375 C 198.285156 124.007812 181.636719 114.324219 181.527344 98.003906 C 191.390625 113.1875 200.085938 117.105469 213.453125 126.824219 C 225.863281 135.84375 234.042969 146.277344 238.207031 158.046875 C 237.113281 144.566406 231.964844 132.429688 223.75 121.324219 C 217.742188 113.195312 210.128906 105.660156 202.953125 97.875 C 194.890625 89.113281 190.472656 83.632812 186.835938 71.773438 " fill-opacity="1" fill-rule="evenodd"/></g><g clip-path="url(#713bb12d54)"><path fill="#94a3b8" d="M 235.996094 152.710938 C 236.828125 154.460938 237.5625 156.234375 238.207031 158.046875 C 237.113281 144.566406 231.964844 132.429688 223.75 121.324219 C 217.742188 113.195312 210.128906 105.660156 202.953125 97.875 C 194.886719 89.121094 190.472656 83.636719 186.835938 71.78125 C 186.898438 80.304688 188.796875 87.777344 192.753906 95.273438 C 197.527344 104.3125 203.664062 108.859375 211.78125 116.457031 C 215.691406 120.113281 219.34375 124.011719 222.707031 128.191406 C 228.160156 134.957031 234.394531 144.234375 235.996094 152.710938 Z M 235.996094 152.710938 " fill-opacity="1" fill-rule="evenodd"/></g><path fill="#94a3b8" d="M 166.425781 92.660156 C 163.394531 98.339844 162.488281 104.523438 165.589844 111.121094 C 171.800781 124.324219 191.613281 136.609375 202.890625 145.742188 C 208.6875 150.429688 214.085938 154.855469 218.367188 159.378906 C 205.9375 142.15625 185.507812 132.335938 173.988281 116 C 169.089844 109.050781 166.125 101.28125 166.425781 92.660156 " fill-opacity="1" fill-rule="evenodd"/><g fill="#94a3b8" fill-opacity="1"><g transform="translate(98.343752, 266.774997)"><g><path d="M 32.21875 0 L 24.203125 0 L 24.203125 -12.234375 L 11.15625 -12.234375 L 11.15625 0 L 3.15625 0 L 3.15625 -31.5 L 11.15625 -31.5 L 11.15625 -18.546875 L 24.203125 -18.546875 L 24.203125 -31.5 L 32.21875 -31.5 Z M 32.21875 0 "/></g></g></g><g fill="#94a3b8" fill-opacity="1"><g transform="translate(135.963721, 266.774997)"><g><path d="M 19.390625 -10.171875 L 19.390625 0 L 11.4375 0 L 11.4375 -9.9375 L -0.21875 -31.5 L 7.78125 -31.5 L 15.390625 -17.78125 L 22.8125 -31.5 L 30.828125 -31.5 Z M 19.390625 -10.171875 "/></g></g></g><g fill="#94a3b8" fill-opacity="1"><g transform="translate(168.813689, 266.774997)"><g><path d="M 3.15625 -31.5 L 16.6875 -31.5 C 21.644531 -31.5 25.675781 -30.039062 28.78125 -27.125 C 31.882812 -24.21875 33.4375 -20.425781 33.4375 -15.75 C 33.4375 -11.101562 31.859375 -7.316406 28.703125 -4.390625 C 25.554688 -1.460938 21.445312 0 16.375 0 L 3.15625 0 Z M 11.15625 -25.109375 L 11.15625 -6.390625 L 16.875 -6.390625 C 19.332031 -6.390625 21.347656 -7.25 22.921875 -8.96875 C 24.503906 -10.695312 25.296875 -12.941406 25.296875 -15.703125 C 25.296875 -18.460938 24.46875 -20.71875 22.8125 -22.46875 C 21.164062 -24.226562 19.066406 -25.109375 16.515625 -25.109375 Z M 11.15625 -25.109375 "/></g></g></g><g fill="#94a3b8" fill-opacity="1"><g transform="translate(205.578661, 266.774997)"><g><path d="M 22.140625 0 L 17.453125 -8.859375 L 11.15625 -8.859375 L 11.15625 0 L 3.15625 0 L 3.15625 -31.5 L 17.234375 -31.5 C 21.398438 -31.5 24.625 -30.546875 26.90625 -28.640625 C 29.1875 -26.734375 30.328125 -24.023438 30.328125 -20.515625 C 30.328125 -15.660156 28.421875 -12.285156 24.609375 -10.390625 L 31.234375 0 Z M 11.15625 -15.171875 L 17.234375 -15.171875 C 18.972656 -15.171875 20.320312 -15.601562 21.28125 -16.46875 C 22.238281 -17.34375 22.71875 -18.601562 22.71875 -20.25 C 22.71875 -21.875 22.238281 -23.101562 21.28125 -23.9375 C 20.320312 -24.78125 18.972656 -25.203125 17.234375 -25.203125 L 11.15625 -25.203125 Z M 11.15625 -15.171875 "/></g></g></g><g fill="#94a3b8" fill-opacity="1"><g transform="translate(240.408627, 266.774997)"><g><path d="M 18.09375 -31.765625 C 22.976562 -31.765625 27.039062 -30.242188 30.28125 -27.203125 C 33.519531 -24.160156 35.140625 -20.359375 35.140625 -15.796875 C 35.140625 -11.203125 33.507812 -7.359375 30.25 -4.265625 C 27 -1.179688 22.941406 0.359375 18.078125 0.359375 C 13.222656 0.359375 9.175781 -1.175781 5.9375 -4.25 C 2.695312 -7.320312 1.078125 -11.171875 1.078125 -15.796875 C 1.078125 -20.390625 2.695312 -24.195312 5.9375 -27.21875 C 9.175781 -30.25 13.226562 -31.765625 18.09375 -31.765625 Z M 18.1875 -25.0625 C 15.71875 -25.0625 13.613281 -24.164062 11.875 -22.375 C 10.132812 -20.59375 9.265625 -18.382812 9.265625 -15.75 C 9.265625 -13.113281 10.140625 -10.882812 11.890625 -9.0625 C 13.648438 -7.25 15.742188 -6.34375 18.171875 -6.34375 C 20.609375 -6.34375 22.671875 -7.25 24.359375 -9.0625 C 26.054688 -10.882812 26.90625 -13.113281 26.90625 -15.75 C 26.90625 -18.382812 26.054688 -20.59375 24.359375 -22.375 C 22.671875 -24.164062 20.613281 -25.0625 18.1875 -25.0625 Z M 18.1875 -25.0625 "/></g></g></g><g fill="#e2e8f0" fill-opacity="1"><g transform="translate(97.361717, 297.82498)"><g><path d="M 0.90625 -5.796875 C 0.90625 -6.972656 1.140625 -8.003906 1.609375 -8.890625 C 2.085938 -9.785156 2.742188 -10.476562 3.578125 -10.96875 C 4.410156 -11.457031 5.347656 -11.703125 6.390625 -11.703125 C 7.285156 -11.703125 8.113281 -11.492188 8.875 -11.078125 C 9.644531 -10.660156 10.234375 -10.117188 10.640625 -9.453125 L 10.640625 -15.546875 L 12.578125 -15.546875 L 12.578125 0 L 10.640625 0 L 10.640625 -2.15625 C 10.265625 -1.476562 9.707031 -0.914062 8.96875 -0.46875 C 8.226562 -0.03125 7.359375 0.1875 6.359375 0.1875 C 5.335938 0.1875 4.410156 -0.0625 3.578125 -0.5625 C 2.742188 -1.070312 2.085938 -1.78125 1.609375 -2.6875 C 1.140625 -3.59375 0.90625 -4.628906 0.90625 -5.796875 Z M 10.640625 -5.78125 C 10.640625 -6.644531 10.460938 -7.398438 10.109375 -8.046875 C 9.765625 -8.691406 9.296875 -9.179688 8.703125 -9.515625 C 8.109375 -9.859375 7.453125 -10.03125 6.734375 -10.03125 C 6.023438 -10.03125 5.375 -9.863281 4.78125 -9.53125 C 4.195312 -9.195312 3.726562 -8.707031 3.375 -8.0625 C 3.03125 -7.414062 2.859375 -6.660156 2.859375 -5.796875 C 2.859375 -4.910156 3.03125 -4.140625 3.375 -3.484375 C 3.726562 -2.835938 4.195312 -2.34375 4.78125 -2 C 5.375 -1.65625 6.023438 -1.484375 6.734375 -1.484375 C 7.453125 -1.484375 8.109375 -1.65625 8.703125 -2 C 9.296875 -2.34375 9.765625 -2.835938 10.109375 -3.484375 C 10.460938 -4.140625 10.640625 -4.90625 10.640625 -5.78125 Z M 10.640625 -5.78125 "/></g></g></g><g fill="#e2e8f0" fill-opacity="1"><g transform="translate(115.75778, 297.82498)"><g><path d="M 0.90625 -5.796875 C 0.90625 -6.972656 1.140625 -8.003906 1.609375 -8.890625 C 2.085938 -9.785156 2.742188 -10.476562 3.578125 -10.96875 C 4.410156 -11.457031 5.335938 -11.703125 6.359375 -11.703125 C 7.367188 -11.703125 8.242188 -11.484375 8.984375 -11.046875 C 9.722656 -10.609375 10.273438 -10.0625 10.640625 -9.40625 L 10.640625 -11.515625 L 12.578125 -11.515625 L 12.578125 0 L 10.640625 0 L 10.640625 -2.140625 C 10.265625 -1.472656 9.703125 -0.914062 8.953125 -0.46875 C 8.203125 -0.03125 7.332031 0.1875 6.34375 0.1875 C 5.320312 0.1875 4.394531 -0.0625 3.5625 -0.5625 C 2.738281 -1.070312 2.085938 -1.78125 1.609375 -2.6875 C 1.140625 -3.59375 0.90625 -4.628906 0.90625 -5.796875 Z M 10.640625 -5.78125 C 10.640625 -6.644531 10.460938 -7.398438 10.109375 -8.046875 C 9.765625 -8.691406 9.296875 -9.179688 8.703125 -9.515625 C 8.109375 -9.859375 7.453125 -10.03125 6.734375 -10.03125 C 6.023438 -10.03125 5.375 -9.863281 4.78125 -9.53125 C 4.195312 -9.195312 3.726562 -8.707031 3.375 -8.0625 C 3.03125 -7.414062 2.859375 -6.660156 2.859375 -5.796875 C 2.859375 -4.910156 3.03125 -4.140625 3.375 -3.484375 C 3.726562 -2.835938 4.195312 -2.34375 4.78125 -2 C 5.375 -1.65625 6.023438 -1.484375 6.734375 -1.484375 C 7.453125 -1.484375 8.109375 -1.65625 8.703125 -2 C 9.296875 -2.34375 9.765625 -2.835938 10.109375 -3.484375 C 10.460938 -4.140625 10.640625 -4.90625 10.640625 -5.78125 Z M 10.640625 -5.78125 "/></g></g></g><g fill="#e2e8f0" fill-opacity="1"><g transform="translate(134.153843, 297.82498)"><g><path d="M 2.609375 -13.375 C 2.242188 -13.375 1.929688 -13.5 1.671875 -13.75 C 1.421875 -14.007812 1.296875 -14.316406 1.296875 -14.671875 C 1.296875 -15.035156 1.421875 -15.34375 1.671875 -15.59375 C 1.929688 -15.851562 2.242188 -15.984375 2.609375 -15.984375 C 2.953125 -15.984375 3.242188 -15.851562 3.484375 -15.59375 C 3.734375 -15.34375 3.859375 -15.035156 3.859375 -14.671875 C 3.859375 -14.316406 3.734375 -14.007812 3.484375 -13.75 C 3.242188 -13.5 2.953125 -13.375 2.609375 -13.375 Z M 3.53125 -11.515625 L 3.53125 0 L 1.609375 0 L 1.609375 -11.515625 Z M 3.53125 -11.515625 "/></g></g></g><g fill="#e2e8f0" fill-opacity="1"><g transform="translate(143.519868, 297.82498)"><g><path d="M 3.53125 -15.546875 L 3.53125 0 L 1.609375 0 L 1.609375 -15.546875 Z M 3.53125 -15.546875 "/></g></g></g><g fill="#e2e8f0" fill-opacity="1"><g transform="translate(152.885889, 297.82498)"><g><path d="M 11.53125 -11.515625 L 4.59375 5.421875 L 2.625 5.421875 L 4.890625 -0.125 L 0.25 -11.515625 L 2.375 -11.515625 L 5.984375 -2.1875 L 9.5625 -11.515625 Z M 11.53125 -11.515625 "/></g></g></g><g fill="#e2e8f0" fill-opacity="1"><g transform="translate(168.908939, 297.82498)"><g/></g></g><g fill="#e2e8f0" fill-opacity="1"><g transform="translate(178.715958, 297.82498)"><g><path d="M 0.90625 -5.78125 C 0.90625 -6.96875 1.140625 -8.003906 1.609375 -8.890625 C 2.085938 -9.785156 2.75 -10.476562 3.59375 -10.96875 C 4.445312 -11.457031 5.421875 -11.703125 6.515625 -11.703125 C 7.921875 -11.703125 9.082031 -11.359375 10 -10.671875 C 10.914062 -9.984375 11.523438 -9.03125 11.828125 -7.8125 L 9.765625 -7.8125 C 9.566406 -8.507812 9.179688 -9.0625 8.609375 -9.46875 C 8.046875 -9.875 7.347656 -10.078125 6.515625 -10.078125 C 5.421875 -10.078125 4.535156 -9.703125 3.859375 -8.953125 C 3.191406 -8.203125 2.859375 -7.144531 2.859375 -5.78125 C 2.859375 -4.394531 3.191406 -3.320312 3.859375 -2.5625 C 4.535156 -1.800781 5.421875 -1.421875 6.515625 -1.421875 C 7.347656 -1.421875 8.046875 -1.617188 8.609375 -2.015625 C 9.171875 -2.410156 9.554688 -2.972656 9.765625 -3.703125 L 11.828125 -3.703125 C 11.515625 -2.523438 10.894531 -1.582031 9.96875 -0.875 C 9.050781 -0.164062 7.898438 0.1875 6.515625 0.1875 C 5.421875 0.1875 4.445312 -0.0546875 3.59375 -0.546875 C 2.75 -1.035156 2.085938 -1.726562 1.609375 -2.625 C 1.140625 -3.519531 0.90625 -4.570312 0.90625 -5.78125 Z M 0.90625 -5.78125 "/></g></g></g><g fill="#e2e8f0" fill-opacity="1"><g transform="translate(195.663003, 297.82498)"><g><path d="M 6.640625 0.1875 C 5.554688 0.1875 4.578125 -0.0546875 3.703125 -0.546875 C 2.828125 -1.035156 2.140625 -1.726562 1.640625 -2.625 C 1.148438 -3.53125 0.90625 -4.582031 0.90625 -5.78125 C 0.90625 -6.945312 1.160156 -7.984375 1.671875 -8.890625 C 2.179688 -9.796875 2.875 -10.488281 3.75 -10.96875 C 4.632812 -11.457031 5.625 -11.703125 6.71875 -11.703125 C 7.8125 -11.703125 8.796875 -11.457031 9.671875 -10.96875 C 10.554688 -10.488281 11.253906 -9.800781 11.765625 -8.90625 C 12.273438 -8.007812 12.53125 -6.96875 12.53125 -5.78125 C 12.53125 -4.582031 12.269531 -3.53125 11.75 -2.625 C 11.226562 -1.726562 10.519531 -1.035156 9.625 -0.546875 C 8.726562 -0.0546875 7.734375 0.1875 6.640625 0.1875 Z M 6.640625 -1.484375 C 7.328125 -1.484375 7.96875 -1.644531 8.5625 -1.96875 C 9.164062 -2.289062 9.648438 -2.773438 10.015625 -3.421875 C 10.390625 -4.066406 10.578125 -4.851562 10.578125 -5.78125 C 10.578125 -6.695312 10.394531 -7.476562 10.03125 -8.125 C 9.664062 -8.769531 9.191406 -9.25 8.609375 -9.5625 C 8.023438 -9.875 7.390625 -10.03125 6.703125 -10.03125 C 6.003906 -10.03125 5.363281 -9.875 4.78125 -9.5625 C 4.195312 -9.25 3.726562 -8.769531 3.375 -8.125 C 3.03125 -7.476562 2.859375 -6.695312 2.859375 -5.78125 C 2.859375 -4.84375 3.03125 -4.050781 3.375 -3.40625 C 3.71875 -2.757812 4.175781 -2.273438 4.75 -1.953125 C 5.320312 -1.640625 5.953125 -1.484375 6.640625 -1.484375 Z M 6.640625 -1.484375 "/></g></g></g><g fill="#e2e8f0" fill-opacity="1"><g transform="translate(213.303063, 297.82498)"><g><path d="M 7.21875 -11.71875 C 8.625 -11.71875 9.757812 -11.289062 10.625 -10.4375 C 11.488281 -9.59375 11.921875 -8.375 11.921875 -6.78125 L 11.921875 0 L 10.03125 0 L 10.03125 -6.515625 C 10.03125 -7.660156 9.742188 -8.535156 9.171875 -9.140625 C 8.597656 -9.753906 7.816406 -10.0625 6.828125 -10.0625 C 5.816406 -10.0625 5.015625 -9.742188 4.421875 -9.109375 C 3.828125 -8.484375 3.53125 -7.566406 3.53125 -6.359375 L 3.53125 0 L 1.609375 0 L 1.609375 -11.515625 L 3.53125 -11.515625 L 3.53125 -9.875 C 3.90625 -10.457031 4.414062 -10.910156 5.0625 -11.234375 C 5.71875 -11.554688 6.4375 -11.71875 7.21875 -11.71875 Z M 7.21875 -11.71875 "/></g></g></g><g fill="#e2e8f0" fill-opacity="1"><g transform="translate(230.943123, 297.82498)"><g><path d="M 3.953125 -9.9375 L 3.953125 -3.15625 C 3.953125 -2.59375 4.066406 -2.191406 4.296875 -1.953125 C 4.535156 -1.722656 4.953125 -1.609375 5.546875 -1.609375 L 6.953125 -1.609375 L 6.953125 0 L 5.234375 0 C 4.171875 0 3.367188 -0.242188 2.828125 -0.734375 C 2.296875 -1.222656 2.03125 -2.03125 2.03125 -3.15625 L 2.03125 -9.9375 L 0.546875 -9.9375 L 0.546875 -11.515625 L 2.03125 -11.515625 L 2.03125 -14.40625 L 3.953125 -14.40625 L 3.953125 -11.515625 L 6.953125 -11.515625 L 6.953125 -9.9375 Z M 3.953125 -9.9375 "/></g></g></g><g fill="#e2e8f0" fill-opacity="1"><g transform="translate(242.787162, 297.82498)"><g><path d="M 3.53125 -9.640625 C 3.863281 -10.296875 4.34375 -10.804688 4.96875 -11.171875 C 5.59375 -11.535156 6.351562 -11.71875 7.25 -11.71875 L 7.25 -9.75 L 6.734375 -9.75 C 4.597656 -9.75 3.53125 -8.585938 3.53125 -6.265625 L 3.53125 0 L 1.609375 0 L 1.609375 -11.515625 L 3.53125 -11.515625 Z M 3.53125 -9.640625 "/></g></g></g><g fill="#e2e8f0" fill-opacity="1"><g transform="translate(254.8202, 297.82498)"><g><path d="M 6.640625 0.1875 C 5.554688 0.1875 4.578125 -0.0546875 3.703125 -0.546875 C 2.828125 -1.035156 2.140625 -1.726562 1.640625 -2.625 C 1.148438 -3.53125 0.90625 -4.582031 0.90625 -5.78125 C 0.90625 -6.945312 1.160156 -7.984375 1.671875 -8.890625 C 2.179688 -9.796875 2.875 -10.488281 3.75 -10.96875 C 4.632812 -11.457031 5.625 -11.703125 6.71875 -11.703125 C 7.8125 -11.703125 8.796875 -11.457031 9.671875 -10.96875 C 10.554688 -10.488281 11.253906 -9.800781 11.765625 -8.90625 C 12.273438 -8.007812 12.53125 -6.96875 12.53125 -5.78125 C 12.53125 -4.582031 12.269531 -3.53125 11.75 -2.625 C 11.226562 -1.726562 10.519531 -1.035156 9.625 -0.546875 C 8.726562 -0.0546875 7.734375 0.1875 6.640625 0.1875 Z M 6.640625 -1.484375 C 7.328125 -1.484375 7.96875 -1.644531 8.5625 -1.96875 C 9.164062 -2.289062 9.648438 -2.773438 10.015625 -3.421875 C 10.390625 -4.066406 10.578125 -4.851562 10.578125 -5.78125 C 10.578125 -6.695312 10.394531 -7.476562 10.03125 -8.125 C 9.664062 -8.769531 9.191406 -9.25 8.609375 -9.5625 C 8.023438 -9.875 7.390625 -10.03125 6.703125 -10.03125 C 6.003906 -10.03125 5.363281 -9.875 4.78125 -9.5625 C 4.195312 -9.25 3.726562 -8.769531 3.375 -8.125 C 3.03125 -7.476562 2.859375 -6.695312 2.859375 -5.78125 C 2.859375 -4.84375 3.03125 -4.050781 3.375 -3.40625 C 3.71875 -2.757812 4.175781 -2.273438 4.75 -1.953125 C 5.320312 -1.640625 5.953125 -1.484375 6.640625 -1.484375 Z M 6.640625 -1.484375 "/></g></g></g><g fill="#e2e8f0" fill-opacity="1"><g transform="translate(272.46026, 297.82498)"><g><path d="M 3.53125 -15.546875 L 3.53125 0 L 1.609375 0 L 1.609375 -15.546875 Z M 3.53125 -15.546875 "/></g></g></g></svg>